<?xml version="1.0" encoding="UTF-8" standalone="no"?>
<svg
   height="256"
   viewBox="0 0 256 256"
   width="256"
   version="1.1"
   id="svg554"
   sodipodi:docname="ScriptCreate.svg"
   inkscape:version="1.2.1 (9c6d41e410, 2022-07-14)"
   xmlns:inkscape="http://www.inkscape.org/namespaces/inkscape"
   xmlns:sodipodi="http://sodipodi.sourceforge.net/DTD/sodipodi-0.dtd"
   xmlns="http://www.w3.org/2000/svg"
   xmlns:svg="http://www.w3.org/2000/svg">
  <defs
     id="defs558" />
  <sodipodi:namedview
     id="namedview556"
     pagecolor="#505050"
     bordercolor="#ffffff"
     borderopacity="1"
     inkscape:showpageshadow="0"
     inkscape:pageopacity="0"
     inkscape:pagecheckerboard="1"
     inkscape:deskcolor="#505050"
     showgrid="false"
     inkscape:zoom="4.4967572"
     inkscape:cx="161.56087"
     inkscape:cy="131.76162"
     inkscape:window-width="3200"
     inkscape:window-height="1721"
     inkscape:window-x="2391"
     inkscape:window-y="-9"
     inkscape:window-maximized="1"
     inkscape:current-layer="g906" />
  <g
     transform="translate(0,-1036.4)"
     id="g552">
    <g
       id="g906"
       transform="translate(9.03114,9.03115)">
      <path
         d="m 85.26347,1037.4 v 16.8527 c -9.307406,0 -16.852694,7.5453 -16.852694,16.8527 v 168.5269 H 51.558082 v -33.7054 H 17.852694 v 33.7054 c 0.0048,6.0161 3.216168,11.5734 8.426347,14.5815 2.560598,1.4838 5.466845,2.267 8.426347,2.2712 v 16.8527 h 84.263472 38.16798 c 18.31788,0 29.24279,-7.6819 29.24279,-34.3473 v -134.1796 h 50.55809 v -33.7054 c 0,-18.6155 -15.09041,-33.7054 -33.70539,-33.7054 z"
         fill="#e0e0e0"
         id="path544"
         sodipodi:nodetypes="ccscccccccccccccssc"
         style="stroke-width:1;fill:#ffffff" />
      <path
         d="m 85.26347,1037.4 c -18.615486,0 -33.705388,15.0904 -33.705388,33.7054 v 117.9688 H 17.852694 1 v 16.8527 33.7054 c 0,18.6155 15.090408,33.7054 33.705388,33.7054 18.61498,0 33.705388,-15.0904 33.705388,-33.7054 v -168.5269 c 0,-9.3074 7.545288,-16.8527 16.852694,-16.8527 9.307406,0 16.85269,7.5453 16.85269,16.8527 v 16.8527 16.8527 16.8527 h 16.8527 67.41077 v -16.8527 h -67.41077 v -16.8527 -16.8527 c 0,-18.6155 -15.09041,-33.7054 -33.70539,-33.7054 z m -67.410776,168.5269 h 33.705388 v 33.7054 c 0,9.3074 -7.545288,16.8527 -16.852694,16.8527 -9.307406,0 -16.852694,-7.5453 -16.852694,-16.8527 z"
         fill="#b3b3b3"
         id="path546"
         style="stroke-width:1" />
    </g>
    <circle
       cx="3"
       cy="1048.4"
       fill="#e0e0e0"
       id="circle548"
       r="0" />
  </g>
</svg>
