<?xml version="1.0" encoding="UTF-8" standalone="no"?>
<svg
   clip-rule="evenodd"
   fill-rule="evenodd"
   stroke-linejoin="round"
   stroke-miterlimit="2"
   viewBox="0 0 256 256"
   version="1.1"
   id="svg4"
   sodipodi:docname="tool_measurements_protractor.svg"
   width="256"
   height="256"
   inkscape:version="1.2.1 (9c6d41e410, 2022-07-14)"
   xmlns:inkscape="http://www.inkscape.org/namespaces/inkscape"
   xmlns:sodipodi="http://sodipodi.sourceforge.net/DTD/sodipodi-0.dtd"
   xmlns="http://www.w3.org/2000/svg"
   xmlns:svg="http://www.w3.org/2000/svg">
  <defs
     id="defs8" />
  <sodipodi:namedview
     id="namedview6"
     pagecolor="#505050"
     bordercolor="#ffffff"
     borderopacity="1"
     inkscape:showpageshadow="0"
     inkscape:pageopacity="0"
     inkscape:pagecheckerboard="1"
     inkscape:deskcolor="#505050"
     showgrid="false"
     inkscape:zoom="2.4652063"
     inkscape:cx="109.32148"
     inkscape:cy="122.30214"
     inkscape:window-width="2400"
     inkscape:window-height="1271"
     inkscape:window-x="2391"
     inkscape:window-y="-9"
     inkscape:window-maximized="1"
     inkscape:current-layer="svg4" />
  <g
     id="g2352"
     transform="translate(0,42.603516)">
    <path
       id="path1336"
       style="color:#000000;fill:#ffffff;stroke-linecap:round;stroke-miterlimit:2;-inkscape-stroke:none"
       d="M 128,18.167969 C 67.486055,18.167968 18,67.654012 18,128.16797 V 152.625 H 238 V 128.16797 C 238,67.654012 188.51395,18.167969 128,18.167969 Z m 0,9.4375 c 1.30674,0 2.35937,1.052646 2.35938,2.359375 v 16.808594 c 0,1.306727 -1.05264,2.357421 -2.35938,2.357421 -1.30673,0 -2.35937,-1.050694 -2.35938,-2.357421 V 29.964844 c 0,-1.306729 1.05265,-2.359375 2.35938,-2.359375 z M 78.919922,40.738281 c 0.836119,-0.02259 1.65628,0.403624 2.105469,1.181641 l 8.404297,14.554687 c 0.653364,1.131662 0.268386,2.569287 -0.863282,3.222657 -1.131659,0.653363 -2.569291,0.26838 -3.222656,-0.863282 l -8.404297,-14.55664 c -0.653364,-1.131661 -0.268377,-2.56734 0.863281,-3.220703 0.353647,-0.204178 0.737133,-0.308093 1.117188,-0.31836 z m 98.160158,0 c 0.38005,0.01027 0.76354,0.114183 1.11719,0.31836 1.13163,0.653366 1.51664,2.089044 0.86328,3.220703 l -8.4043,14.55664 c -0.65337,1.13166 -2.09099,1.516648 -3.22266,0.863282 -1.13166,-0.653365 -1.51664,-2.090997 -0.86328,-3.222657 l 8.4043,-14.554687 c 0.44919,-0.778015 1.26935,-1.204225 2.10547,-1.181641 z M 128,58.167969 c 38.89651,0 70,31.103476 70,70.000001 H 58 c -10e-7,-38.896525 31.103485,-70.000002 70,-70.000001 z M 43.160156,76.623047 c 0.380054,0.01027 0.763543,0.112229 1.117188,0.316406 l 14.55664,8.404297 c 1.131663,0.653366 1.516651,2.090987 0.863282,3.222656 -0.653365,1.13166 -2.090994,1.516647 -3.222657,0.863282 L 41.919922,81.025391 c -1.131662,-0.653366 -1.516646,-2.090996 -0.863281,-3.222657 0.449191,-0.778022 1.267397,-1.202271 2.103515,-1.179687 z m 169.679684,0 c 0.83612,-0.02259 1.65433,0.401675 2.10352,1.179687 0.65337,1.131665 0.26838,2.569291 -0.86328,3.222657 l -14.55469,8.404297 c -1.13166,0.653361 -2.56929,0.268383 -3.22266,-0.863282 -0.65332,-1.131656 -0.26838,-2.569294 0.86329,-3.222656 l 14.55664,-8.404297 c 0.35364,-0.204177 0.73713,-0.30614 1.11718,-0.316406 z M 29.964844,125.64062 h 16.808594 c 1.306718,0 2.357421,1.05265 2.357421,2.35938 0,1.30674 -1.050703,2.35938 -2.357421,2.35938 H 29.964844 c -1.306734,0 -2.359375,-1.05264 -2.359375,-2.35938 0,-1.30673 1.052641,-2.35938 2.359375,-2.35938 z m 179.261716,0 h 16.8086 c 1.30667,0 2.35937,1.05265 2.35937,2.35938 0,1.30674 -1.0527,2.35938 -2.35937,2.35938 h -16.8086 c -1.30673,0 -2.35742,-1.05264 -2.35742,-2.35938 0,-1.30673 1.05069,-2.35938 2.35742,-2.35938 z" />
    <circle
       style="opacity:1;fill:none;stroke:#ffffff;stroke-width:15;stroke-linecap:round;stroke-miterlimit:2;stroke-dasharray:none"
       id="circle2235"
       cx="128"
       cy="127.19604"
       r="4.5601964"
       transform="rotate(90,127.59802,127.59802)" />
  </g>
</svg>
