<?xml version="1.0" encoding="UTF-8" standalone="no"?>
<svg
   height="256"
   viewBox="0 0 256 256"
   width="256"
   version="1.1"
   id="svg4"
   sodipodi:docname="tool_move.svg"
   inkscape:version="1.2.1 (9c6d41e410, 2022-07-14)"
   xmlns:inkscape="http://www.inkscape.org/namespaces/inkscape"
   xmlns:sodipodi="http://sodipodi.sourceforge.net/DTD/sodipodi-0.dtd"
   xmlns="http://www.w3.org/2000/svg"
   xmlns:svg="http://www.w3.org/2000/svg">
  <defs
     id="defs8" />
  <sodipodi:namedview
     id="namedview6"
     pagecolor="#505050"
     bordercolor="#ffffff"
     borderopacity="1"
     inkscape:showpageshadow="0"
     inkscape:pageopacity="0"
     inkscape:pagecheckerboard="1"
     inkscape:deskcolor="#505050"
     showgrid="false"
     inkscape:zoom="3.1796875"
     inkscape:cx="128.47174"
     inkscape:cy="128.78624"
     inkscape:window-width="1920"
     inkscape:window-height="1001"
     inkscape:window-x="-9"
     inkscape:window-y="-9"
     inkscape:window-maximized="1"
     inkscape:current-layer="svg4" />
  <path
     d="m 127.75407,18.002334 a 15.716205,15.718021 0 0 0 -10.86525,4.573801 l -31.429279,31.432898 22.222069,22.22463 20.31902,-20.321368 20.31903,20.321368 22.22206,-22.22463 -31.42927,-31.432898 A 15.716205,15.718021 0 0 0 127.75612,18.002334 Z M 54.03043,85.441616 22.601163,116.87451 a 15.716205,15.718021 0 0 0 0,22.22463 L 54.03043,170.53203 76.252494,148.30741 55.933473,127.98603 76.252494,107.66467 54.03043,85.440045 Z m 147.93914,0 -22.22206,22.224634 20.31902,20.32136 -20.31902,20.32136 22.22206,22.22464 31.42927,-31.4329 a 15.716205,15.718021 0 0 0 0,-22.22463 L 201.96957,85.443188 Z M 128.00079,96.553617 A 31.429267,31.432898 0 0 0 96.571516,127.9865 31.429267,31.432898 0 0 0 128.00079,159.41941 31.429267,31.432898 0 0 0 159.43006,127.9865 31.429267,31.432898 0 0 0 128.00079,96.553617 Z m -20.31902,83.187153 -22.222072,22.22463 31.429282,31.4329 a 15.716205,15.718021 0 0 0 22.22206,0 l 31.42926,-31.4329 -22.22206,-22.22463 -20.31902,20.32137 -20.31903,-20.32137 z"
     fill="#e0e0e0"
     id="path2"
     style="fill:#ffffff;stroke-width:0.999996" />
</svg>
