<?xml version="1.0" encoding="UTF-8" standalone="no"?>
<svg
   height="256"
   viewBox="0 0 256 256"
   width="256"
   version="1.1"
   id="svg4"
   sodipodi:docname="ToolScale.svg"
   inkscape:version="1.2.1 (9c6d41e410, 2022-07-14)"
   xmlns:inkscape="http://www.inkscape.org/namespaces/inkscape"
   xmlns:sodipodi="http://sodipodi.sourceforge.net/DTD/sodipodi-0.dtd"
   xmlns="http://www.w3.org/2000/svg"
   xmlns:svg="http://www.w3.org/2000/svg">
  <defs
     id="defs8" />
  <sodipodi:namedview
     id="namedview6"
     pagecolor="#505050"
     bordercolor="#ffffff"
     borderopacity="1"
     inkscape:showpageshadow="0"
     inkscape:pageopacity="0"
     inkscape:pagecheckerboard="1"
     inkscape:deskcolor="#505050"
     showgrid="false"
     inkscape:zoom="3.1796875"
     inkscape:cx="242.00491"
     inkscape:cy="145.76904"
     inkscape:window-width="3200"
     inkscape:window-height="1721"
     inkscape:window-x="2391"
     inkscape:window-y="-9"
     inkscape:window-maximized="1"
     inkscape:current-layer="svg4" />
  <path
     d="M 144.56756,12.027025 A 16.567568,16.567568 0 0 0 128,28.594593 16.567568,16.567568 0 0 0 144.56756,45.162161 h 42.84208 l -21.42187,21.421865 23.4282,23.428198 21.42187,-21.421865 V 111.43243 A 16.567568,16.567568 0 0 0 227.4054,128 16.567568,16.567568 0 0 0 243.97297,111.43243 V 28.594593 A 16.569225,16.569225 0 0 0 227.4054,12.027025 Z M 128,94.864865 A 33.135136,33.135136 0 0 0 94.864865,128 33.135136,33.135136 0 0 0 128,161.13513 33.135136,33.135136 0 0 0 161.13513,128 33.135136,33.135136 0 0 0 128,94.864865 Z M 28.594593,128 a 16.567568,16.567568 0 0 0 -16.567568,16.56756 v 82.83784 a 16.569225,16.569225 0 0 0 16.567568,16.56757 H 111.43243 A 16.567568,16.567568 0 0 0 128,227.4054 16.567568,16.567568 0 0 0 111.43243,210.83784 H 68.590359 L 90.012224,189.41597 66.584026,165.98777 45.162161,187.40964 V 144.56756 A 16.567568,16.567568 0 0 0 28.594593,128 Z"
     fill="#e0e0e0"
     id="path2"
     style="stroke-width:1" />
</svg>
