<?xml version="1.0" encoding="UTF-8" standalone="no"?>
<svg
   clip-rule="evenodd"
   fill-rule="evenodd"
   stroke-linejoin="round"
   stroke-miterlimit="2"
   viewBox="0 0 256 256"
   version="1.1"
   id="svg4"
   sodipodi:docname="tool_measurements_ruler.svg"
   width="256"
   height="256"
   inkscape:version="1.2.1 (9c6d41e410, 2022-07-14)"
   xmlns:inkscape="http://www.inkscape.org/namespaces/inkscape"
   xmlns:sodipodi="http://sodipodi.sourceforge.net/DTD/sodipodi-0.dtd"
   xmlns="http://www.w3.org/2000/svg"
   xmlns:svg="http://www.w3.org/2000/svg">
  <defs
     id="defs8" />
  <sodipodi:namedview
     id="namedview6"
     pagecolor="#505050"
     bordercolor="#ffffff"
     borderopacity="1"
     inkscape:showpageshadow="0"
     inkscape:pageopacity="0"
     inkscape:pagecheckerboard="1"
     inkscape:deskcolor="#505050"
     showgrid="false"
     inkscape:zoom="1.1241893"
     inkscape:cx="157.00203"
     inkscape:cy="-29.799252"
     inkscape:window-width="2400"
     inkscape:window-height="1271"
     inkscape:window-x="2391"
     inkscape:window-y="-9"
     inkscape:window-maximized="1"
     inkscape:current-layer="svg4" />
  <path
     id="rect824"
     style="stroke-width:0.493835;opacity:1;fill:#ffffff;stroke-linecap:round"
     d="M 9.5635116 -105.24037 C 7.1066612 -105.24037 5.1283492 -103.26267 5.1283492 -100.8058 L 5.1283492 -43.179572 C 5.1283492 -40.722727 7.1066612 -38.745004 9.5635116 -38.745004 L 217.90044 -38.745004 C 220.35732 -38.745004 222.33561 -40.722727 222.33561 -43.179572 L 222.33561 -100.8058 C 222.33561 -103.26267 220.35732 -105.24037 217.90044 -105.24037 L 9.5635116 -105.24037 z M 18.852284 -102.44223 C 20.615995 -102.44223 22.03596 -101.02123 22.03596 -99.256209 L 22.03596 -72.450037 C 22.03596 -70.685037 20.615995 -69.264018 18.852284 -69.264018 C 17.088585 -69.264018 15.668609 -70.685037 15.668609 -72.450037 L 15.668609 -99.256209 C 15.668609 -101.02123 17.088585 -102.44223 18.852284 -102.44223 z M 38.731454 -102.44223 C 39.613311 -102.44223 40.324255 -101.7327 40.324255 -100.85018 L 40.324255 -87.446132 C 40.324255 -86.563632 39.613311 -85.854088 38.731454 -85.854088 C 37.849587 -85.854088 37.14058 -86.563632 37.14058 -87.446132 L 37.14058 -100.85018 C 37.14058 -101.7327 37.849587 -102.44223 38.731454 -102.44223 z M 57.019749 -102.44223 C 57.90161 -102.44223 58.612551 -101.7327 58.612551 -100.85018 L 58.612551 -87.446132 C 58.612551 -86.563629 57.90161 -85.854088 57.019749 -85.854088 C 56.13789 -85.854088 55.428876 -86.563629 55.428876 -87.446132 L 55.428876 -100.85018 C 55.428876 -101.7327 56.13789 -102.44223 57.019749 -102.44223 z M 75.309973 -102.44223 C 76.19184 -102.44223 76.900847 -101.7327 76.900847 -100.85018 L 76.900847 -87.446132 C 76.900847 -86.563628 76.19184 -85.854088 75.309973 -85.854088 C 74.428112 -85.854088 73.717172 -86.563628 73.717172 -87.446132 L 73.717172 -100.85018 C 73.717172 -101.7327 74.428112 -102.44223 75.309973 -102.44223 z M 93.598269 -102.44223 C 94.480136 -102.44223 95.189143 -101.7327 95.189143 -100.85018 L 95.189143 -87.446132 C 95.189143 -86.563627 94.480136 -85.854088 93.598269 -85.854088 C 92.716413 -85.854088 92.005467 -86.563627 92.005467 -87.446132 L 92.005467 -100.85018 C 92.005467 -101.7327 92.716413 -102.44223 93.598269 -102.44223 z M 113.47744 -102.44223 C 115.24115 -102.44223 116.66111 -101.02123 116.66111 -99.256209 L 116.66111 -72.450037 C 116.66111 -70.685033 115.24115 -69.264018 113.47744 -69.264018 C 111.71372 -69.264018 110.29376 -70.685033 110.29376 -72.450037 L 110.29376 -99.256209 C 110.29376 -101.02123 111.71372 -102.44223 113.47744 -102.44223 z M 133.35854 -102.44223 C 134.24037 -102.44223 134.94941 -101.7327 134.94941 -100.85018 L 134.94941 -87.446132 C 134.94941 -86.563626 134.24037 -85.854088 133.35854 -85.854088 C 132.47667 -85.854088 131.76573 -86.563626 131.76573 -87.446132 L 131.76573 -100.85018 C 131.76573 -101.7327 132.47667 -102.44223 133.35854 -102.44223 z M 151.64683 -102.44223 C 152.52869 -102.44223 153.23771 -101.7327 153.23771 -100.85018 L 153.23771 -87.446132 C 153.23771 -86.563625 152.52869 -85.854088 151.64683 -85.854088 C 150.76496 -85.854088 150.05403 -86.563625 150.05403 -87.446132 L 150.05403 -100.85018 C 150.05403 -101.7327 150.76496 -102.44223 151.64683 -102.44223 z M 169.93513 -102.44223 C 170.81699 -102.44223 171.52793 -101.7327 171.52793 -100.85018 L 171.52793 -87.446132 C 171.52793 -86.563624 170.81699 -85.854088 169.93513 -85.854088 C 169.05326 -85.854088 168.34425 -86.563624 168.34425 -87.446132 L 168.34425 -100.85018 C 168.34425 -101.7327 169.05326 -102.44223 169.93513 -102.44223 z M 188.22342 -102.44223 C 189.10529 -102.44223 189.81622 -101.7327 189.81622 -100.85018 L 189.81622 -87.446132 C 189.81622 -86.563623 189.10529 -85.854088 188.22342 -85.854088 C 187.34156 -85.854088 186.63255 -86.563623 186.63255 -87.446132 L 186.63255 -100.85018 C 186.63255 -101.7327 187.34156 -102.44223 188.22342 -102.44223 z M 208.10452 -102.44223 C 209.86823 -102.44223 211.2882 -101.02123 211.2882 -99.256209 L 211.2882 -72.450037 C 211.2882 -70.685031 209.86823 -69.264018 208.10452 -69.264018 C 206.3408 -69.264018 204.92085 -70.685031 204.92085 -72.450037 L 204.92085 -99.256209 C 204.92085 -101.02123 206.3408 -102.44223 208.10452 -102.44223 z "
     transform="matrix(1.0128575,0,0,1.0121124,12.805713,200.86469)" />
</svg>
