<?xml version="1.0" encoding="UTF-8" standalone="no"?>
<svg
   height="256"
   viewBox="0 0 256 256"
   width="256"
   version="1.1"
   id="svg496"
   sodipodi:docname="Tools.svg"
   inkscape:version="1.2.1 (9c6d41e410, 2022-07-14)"
   xmlns:inkscape="http://www.inkscape.org/namespaces/inkscape"
   xmlns:sodipodi="http://sodipodi.sourceforge.net/DTD/sodipodi-0.dtd"
   xmlns="http://www.w3.org/2000/svg"
   xmlns:svg="http://www.w3.org/2000/svg">
  <defs
     id="defs500" />
  <sodipodi:namedview
     id="namedview498"
     pagecolor="#505050"
     bordercolor="#ffffff"
     borderopacity="1"
     inkscape:showpageshadow="0"
     inkscape:pageopacity="0"
     inkscape:pagecheckerboard="1"
     inkscape:deskcolor="#505050"
     showgrid="false"
     inkscape:zoom="2.2483786"
     inkscape:cx="76.721954"
     inkscape:cy="54.038942"
     inkscape:window-width="2400"
     inkscape:window-height="1271"
     inkscape:window-x="2391"
     inkscape:window-y="-9"
     inkscape:window-maximized="1"
     inkscape:current-layer="svg496" />
  <path
     d="M 65.142994,18 49.428742,49.428504 65.142994,80.857008 V 143.71402 H 33.71449 v 47.14275 7.85713 c 0,21.76424 17.521391,39.28563 39.28563,39.28563 21.764239,0 39.28563,-17.52139 39.28563,-39.28563 V 182.99965 143.71402 H 80.857246 V 80.857008 L 96.571498,49.428504 80.857246,18 Z m 94.285516,2.731608 A 47.142756,47.142756 0 0 0 128,65.143227 47.142756,47.142756 0 0 0 159.42851,109.55485 v 97.01665 15.71425 c 0,8.70569 7.00855,15.71425 15.71425,15.71425 8.70569,0 15.71425,-7.00856 15.71425,-15.71425 v -62.85701 -49.90532 a 47.142756,47.142756 0 0 0 31.4285,-44.380193 47.142756,47.142756 0 0 0 -31.4285,-44.38019 v 44.38019 A 15.714252,15.714252 0 0 1 175.14276,80.857479 15.714252,15.714252 0 0 1 159.42851,65.143227 Z"
     fill="#e0e0e0"
     id="path494"
     style="fill:#ffffff;stroke-width:1" />
</svg>
