<?xml version="1.0" encoding="UTF-8" standalone="no"?>
<svg
   height="256"
   viewBox="0 0 256 256"
   width="256"
   version="1.1"
   id="svg4"
   sodipodi:docname="ToolScale.svg"
   inkscape:version="1.2.1 (9c6d41e410, 2022-07-14)"
   xmlns:inkscape="http://www.inkscape.org/namespaces/inkscape"
   xmlns:sodipodi="http://sodipodi.sourceforge.net/DTD/sodipodi-0.dtd"
   xmlns="http://www.w3.org/2000/svg"
   xmlns:svg="http://www.w3.org/2000/svg">
  <defs
     id="defs8" />
  <sodipodi:namedview
     id="namedview6"
     pagecolor="#505050"
     bordercolor="#ffffff"
     borderopacity="1"
     inkscape:showpageshadow="0"
     inkscape:pageopacity="0"
     inkscape:pagecheckerboard="1"
     inkscape:deskcolor="#505050"
     showgrid="false"
     inkscape:zoom="3.1796875"
     inkscape:cx="94.191646"
     inkscape:cy="133.50369"
     inkscape:window-width="2400"
     inkscape:window-height="1271"
     inkscape:window-x="2391"
     inkscape:window-y="-9"
     inkscape:window-maximized="1"
     inkscape:current-layer="svg4" />
  <path
     d="m 137.74131,12.027025 a 15.714286,15.714286 0 0 0 -15.71428,15.714286 15.714286,15.714286 0 0 0 15.71428,15.714286 h 40.63557 l -20.31857,20.318572 22.22157,22.221572 20.31858,-20.318571 v 40.63557 a 15.714286,15.714286 0 0 0 15.71428,15.71429 15.714286,15.714286 0 0 0 15.71429,-15.71429 V 27.741311 A 15.715858,15.715858 0 0 0 216.31274,12.027025 Z M 122.02703,90.598456 A 31.428572,31.428572 0 0 0 90.598456,122.02703 31.428572,31.428572 0 0 0 122.02703,153.45559 31.428572,31.428572 0 0 0 153.45559,122.02703 31.428572,31.428572 0 0 0 122.02703,90.598456 Z M 27.741311,122.02703 a 15.714286,15.714286 0 0 0 -15.714286,15.71428 v 78.57143 a 15.715858,15.715858 0 0 0 15.714286,15.71429 h 78.571429 a 15.714286,15.714286 0 0 0 15.71429,-15.71429 15.714286,15.714286 0 0 0 -15.71429,-15.71428 H 65.67717 L 85.995741,180.27988 63.774169,158.05831 43.455597,178.37688 V 137.74131 A 15.714286,15.714286 0 0 0 27.741311,122.02703 Z"
     fill="#e0e0e0"
     id="path2"
     style="stroke-width:0.999999;fill:#ffffff" />
</svg>
