<?xml version="1.0" encoding="UTF-8" standalone="no"?>
<svg
   height="32"
   width="32"
   viewBox="0 0 32 32"
   version="1.1"
   id="svg135"
   sodipodi:docname="GuiVisibilityVisible.svg"
   inkscape:version="1.2.1 (9c6d41e410, 2022-07-14)"
   xmlns:inkscape="http://www.inkscape.org/namespaces/inkscape"
   xmlns:sodipodi="http://sodipodi.sourceforge.net/DTD/sodipodi-0.dtd"
   xmlns="http://www.w3.org/2000/svg"
   xmlns:svg="http://www.w3.org/2000/svg">
  <defs
     id="defs139" />
  <sodipodi:namedview
     id="namedview137"
     pagecolor="#505050"
     bordercolor="#ffffff"
     borderopacity="1"
     inkscape:showpageshadow="0"
     inkscape:pageopacity="0"
     inkscape:pagecheckerboard="1"
     inkscape:deskcolor="#505050"
     showgrid="false"
     inkscape:zoom="17.987029"
     inkscape:cx="-4.3642561"
     inkscape:cy="10.813348"
     inkscape:window-width="2560"
     inkscape:window-height="1361"
     inkscape:window-x="1911"
     inkscape:window-y="-9"
     inkscape:window-maximized="1"
     inkscape:current-layer="svg135" />
  <path
     d="m 15.994,4.0000955 c -5.113959,0 -11.5819078,3.895969 -13.9098893,11.4099085 a 1.9999841,1.9999841 0 0 0 0,1.099992 C 4.3200929,24.421933 10.99404,27.999904 15.994,27.999904 c 4.99996,0 11.671907,-3.577971 13.921889,-11.449909 a 1.9999841,1.9999841 0 0 0 0,-1.099991 C 27.715906,7.8700647 21.101959,4.0000955 15.994,4.0000955 Z m 0,3.9999682 a 7.9999364,7.9999364 0 0 1 0,15.9998723 7.9999364,7.9999364 0 0 1 0,-15.9998723 z m 0,3.9999683 a 3.9999683,3.9999683 0 0 0 0,7.999936 3.9999683,3.9999683 0 0 0 0,-7.999936 z"
     fill="#e0e0e0"
     id="path133"
     style="stroke-width:1" />
</svg>
