<?xml version="1.0" encoding="UTF-8" standalone="no"?>
<svg
   height="32"
   viewBox="0 0 32 32"
   width="32"
   version="1.1"
   id="svg4"
   sodipodi:docname="GuiVisibilityHidden.svg"
   inkscape:version="1.2.1 (9c6d41e410, 2022-07-14)"
   xmlns:inkscape="http://www.inkscape.org/namespaces/inkscape"
   xmlns:sodipodi="http://sodipodi.sourceforge.net/DTD/sodipodi-0.dtd"
   xmlns="http://www.w3.org/2000/svg"
   xmlns:svg="http://www.w3.org/2000/svg">
  <defs
     id="defs8" />
  <sodipodi:namedview
     id="namedview6"
     pagecolor="#505050"
     bordercolor="#ffffff"
     borderopacity="1"
     inkscape:showpageshadow="0"
     inkscape:pageopacity="0"
     inkscape:pagecheckerboard="1"
     inkscape:deskcolor="#505050"
     showgrid="false"
     inkscape:zoom="17.987029"
     inkscape:cx="7.1440371"
     inkscape:cy="6.2545072"
     inkscape:window-width="2560"
     inkscape:window-height="1361"
     inkscape:window-x="1911"
     inkscape:window-y="-9"
     inkscape:window-maximized="1"
     inkscape:current-layer="svg4" />
  <path
     d="m 5.92,15.565261 -3.842,1.096 c 0.64,2.24 1.648,4.12 2.864,5.68 l -1.668,1.668 2.828,2.828 1.686,-1.686 c 1.972,1.494 4.154,2.412 6.212,2.772 v 2.188 h 4 v -2.188 c 2.058,-0.36 4.24,-1.278 6.21,-2.772 l 1.688,1.686 2.828,-2.828 -1.668,-1.668 a 16.57,16.57 0 0 0 2.864,-5.68 l -3.844,-1.096 c -1.752,6.126 -7.08,8.546 -10.08,8.546 -3,0 -8.326,-2.418 -10.076,-8.546 z"
     fill="#e0e0e0"
     id="path2"
     style="stroke-width:1" />
</svg>
